<svg width="349" height="144" viewBox="0 0 349 144" fill="none" xmlns="http://www.w3.org/2000/svg">
<g clip-path="url(#clip0_268_7014)" filter="url(#filter0_d_268_7014)">
<path fill-rule="evenodd" clip-rule="evenodd" d="M115 28C119.418 28 123 24.4183 123 20H324C328.418 20 332 23.5817 332 28V108C332 112.418 328.418 116 324 116H123C123 111.582 119.418 108 115 108C110.582 108 107 111.582 107 116H25C20.5817 116 17 112.418 17 108V28C17 23.5817 20.5817 20 25 20H107C107 24.4183 110.582 28 115 28Z" fill="white"/>
<line x1="115.5" y1="30" x2="115.5" y2="106" stroke="#E8E8E8" stroke-dasharray="2 2"/>
</g>
<defs>
<filter id="filter0_d_268_7014" x="-7" y="0" width="363" height="144" filterUnits="userSpaceOnUse" color-interpolation-filters="sRGB">
<feFlood flood-opacity="0" result="BackgroundImageFix"/>
<feColorMatrix in="SourceAlpha" type="matrix" values="0 0 0 0 0 0 0 0 0 0 0 0 0 0 0 0 0 0 127 0" result="hardAlpha"/>
<feOffset dy="4"/>
<feGaussianBlur stdDeviation="12"/>
<feComposite in2="hardAlpha" operator="out"/>
<feColorMatrix type="matrix" values="0 0 0 0 0 0 0 0 0 0 0 0 0 0 0 0 0 0 0.12 0"/>
<feBlend mode="normal" in2="BackgroundImageFix" result="effect1_dropShadow_268_7014"/>
<feBlend mode="normal" in="SourceGraphic" in2="effect1_dropShadow_268_7014" result="shape"/>
</filter>
<clipPath id="clip0_268_7014">
<rect width="315" height="96" fill="white" transform="translate(17 20)"/>
</clipPath>
</defs>
</svg>
