<svg width="68" height="68" viewBox="0 0 68 68" fill="none" xmlns="http://www.w3.org/2000/svg">
<g id="checked (1) 1" filter="url(#filter0_d_268_11325)">
<path id="Vector" d="M34 56C48.3594 56 60 44.3594 60 30C60 15.6406 48.3594 4 34 4C19.6406 4 8 15.6406 8 30C8 44.3594 19.6406 56 34 56Z" fill="url(#paint0_linear_268_11325)"/>
<path id="Vector_2" d="M48.1375 22.5249L31.2375 41.05C30.1 42.35 28.15 42.35 27.0125 41.05L19.8625 33.0875C18.8875 31.9499 18.8875 30.1625 20.0249 29.0249C21.1625 28.0499 22.9499 28.0499 24.0875 29.1874L29.125 34.8749L43.9124 18.7874C45.05 17.6499 46.8374 17.4874 47.975 18.625C49.1124 19.5999 49.1124 21.5499 48.1375 22.5249Z" fill="white"/>
</g>
<defs>
<filter id="filter0_d_268_11325" x="0" y="0" width="68" height="68" filterUnits="userSpaceOnUse" color-interpolation-filters="sRGB">
<feFlood flood-opacity="0" result="BackgroundImageFix"/>
<feColorMatrix in="SourceAlpha" type="matrix" values="0 0 0 0 0 0 0 0 0 0 0 0 0 0 0 0 0 0 127 0" result="hardAlpha"/>
<feOffset dy="4"/>
<feGaussianBlur stdDeviation="4"/>
<feComposite in2="hardAlpha" operator="out"/>
<feColorMatrix type="matrix" values="0 0 0 0 0 0 0 0 0 0 0 0 0 0 0 0 0 0 0.12 0"/>
<feBlend mode="normal" in2="BackgroundImageFix" result="effect1_dropShadow_268_11325"/>
<feBlend mode="normal" in="SourceGraphic" in2="effect1_dropShadow_268_11325" result="shape"/>
</filter>
<linearGradient id="paint0_linear_268_11325" x1="12.0626" y1="-0.108224" x2="71.3116" y2="55.4394" gradientUnits="userSpaceOnUse">
<stop stop-color="#DEF2FF"/>
<stop offset="1" stop-color="#DEF2FF" stop-opacity="0"/>
</linearGradient>
</defs>
</svg>
