<svg width="349" height="144" viewBox="0 0 349 144" fill="none" xmlns="http://www.w3.org/2000/svg">
<g clip-path="url(#clip0_268_7975)" filter="url(#filter0_d_268_7975)">
<path fill-rule="evenodd" clip-rule="evenodd" d="M115 28C119.418 28 123 24.4183 123 20H324C328.418 20 332 23.5817 332 28V108C332 112.418 328.418 116 324 116H123C123 111.582 119.418 108 115 108C110.582 108 107 111.582 107 116H25C20.5817 116 17 112.418 17 108V28C17 23.5817 20.5817 20 25 20H107C107 24.4183 110.582 28 115 28Z" fill="white"/>
<line x1="115.5" y1="30" x2="115.5" y2="106" stroke="#E8E8E8" stroke-dasharray="2 2"/>
<g clip-path="url(#clip1_268_7975)">
<rect x="323.627" y="-3" width="63.4813" height="32" transform="rotate(45 323.627 -3)" fill="#393939"/>
<path d="M313.632 27.3011L313.996 27.6657L313.563 28.0987L312.639 27.1748L315.983 23.8312C316.075 23.7387 316.16 23.6599 316.236 23.595C316.313 23.5315 316.392 23.4804 316.472 23.4417C316.553 23.4017 316.641 23.3734 316.735 23.3568C316.83 23.3388 316.944 23.3299 317.077 23.3299C317.126 23.3299 317.182 23.3299 317.242 23.3299C317.305 23.3312 317.364 23.3299 317.421 23.3257C317.479 23.3202 317.532 23.3112 317.58 23.2988C317.63 23.285 317.669 23.2643 317.696 23.2366C317.729 23.2035 317.757 23.1662 317.779 23.1248C317.804 23.0833 317.816 23.0378 317.816 22.988C317.819 22.9383 317.806 22.8838 317.777 22.8244C317.751 22.765 317.704 22.7015 317.636 22.6338C317.505 22.5026 317.361 22.4508 317.203 22.4784C317.048 22.5061 316.89 22.6007 316.729 22.7622L316.194 22.2278C316.356 22.0662 316.521 21.9522 316.689 21.886C316.859 21.8183 317.025 21.7879 317.187 21.7948C317.349 21.8031 317.506 21.8445 317.655 21.9191C317.805 21.9923 317.941 22.089 318.061 22.2091C318.168 22.3168 318.26 22.4335 318.336 22.5592C318.414 22.6835 318.463 22.8106 318.485 22.9404C318.51 23.0702 318.503 23.2 318.465 23.3299C318.427 23.4611 318.349 23.586 318.231 23.7048C318.168 23.767 318.106 23.8119 318.042 23.8395C317.98 23.8685 317.912 23.8885 317.837 23.8996C317.762 23.9106 317.679 23.9168 317.586 23.9182C317.497 23.9196 317.392 23.9244 317.274 23.9327C317.199 23.9382 317.126 23.9569 317.056 23.9886C316.988 24.0204 316.923 24.0591 316.861 24.1046C316.801 24.1488 316.743 24.1965 316.689 24.2476C316.635 24.2987 316.586 24.3463 316.542 24.3905L313.632 27.3011ZM317.419 29.2236C317.524 29.1186 317.604 29.0219 317.659 28.9335C317.715 28.8465 317.753 28.7651 317.771 28.6891C317.789 28.6131 317.789 28.5413 317.771 28.4736C317.756 28.406 317.728 28.3397 317.688 28.2748C317.648 28.2099 317.597 28.1443 317.537 28.078C317.477 28.0131 317.413 27.9447 317.344 27.8729L317.802 27.4151C317.945 27.5587 318.087 27.6602 318.226 27.7196C318.367 27.7776 318.51 27.7955 318.653 27.7734C318.8 27.7514 318.949 27.6899 319.103 27.5891C319.259 27.4883 319.424 27.3508 319.598 27.1768L320.168 27.7465C320.028 27.886 319.88 28.0138 319.722 28.1298C319.566 28.2444 319.403 28.3286 319.233 28.3825C319.063 28.4364 318.887 28.4495 318.705 28.4219C318.523 28.3942 318.335 28.3072 318.142 28.1608L318.123 28.1795C318.224 28.3024 318.296 28.4205 318.34 28.5337C318.387 28.647 318.414 28.7547 318.419 28.8569C318.425 28.9591 318.414 29.0551 318.388 29.1448C318.362 29.2346 318.326 29.3189 318.28 29.3976C318.238 29.4763 318.188 29.5474 318.133 29.611C318.079 29.6759 318.028 29.7332 317.978 29.7829L317.69 30.0709C317.491 30.2697 317.284 30.4078 317.068 30.4852C316.854 30.5639 316.642 30.5936 316.432 30.5743C316.224 30.5563 316.024 30.4969 315.832 30.3961C315.638 30.2967 315.463 30.1682 315.306 30.0108C315.144 29.8492 315.013 29.6683 314.912 29.468C314.811 29.2678 314.75 29.0606 314.73 28.8465C314.712 28.6325 314.74 28.4177 314.815 28.2023C314.889 27.9868 315.022 27.7838 315.212 27.5932L315.5 27.3053C315.591 27.2141 315.672 27.1375 315.743 27.0753C315.816 27.0132 315.883 26.9614 315.944 26.9199C316.007 26.8785 316.068 26.8454 316.126 26.8205C316.184 26.7957 316.245 26.7763 316.308 26.7625C316.373 26.7473 316.442 26.7349 316.515 26.7252C316.591 26.7155 316.678 26.7052 316.774 26.6941C316.857 26.6831 316.932 26.672 316.998 26.661C317.067 26.6499 317.13 26.6368 317.187 26.6216C317.245 26.6078 317.298 26.5906 317.346 26.5698C317.396 26.5477 317.443 26.5215 317.487 26.4911C317.607 26.4041 317.671 26.3068 317.68 26.199C317.689 26.0899 317.644 25.9857 317.545 25.8862C317.488 25.8296 317.43 25.7813 317.371 25.7412C317.314 25.7012 317.258 25.6673 317.203 25.6397C317.149 25.6107 317.098 25.5858 317.05 25.5651C317.004 25.5444 316.963 25.5244 316.928 25.505L317.342 25.0907C317.425 25.1266 317.503 25.1653 317.578 25.2067C317.655 25.2482 317.726 25.2896 317.789 25.331C317.853 25.3725 317.909 25.4118 317.957 25.4491C318.007 25.4878 318.046 25.5209 318.073 25.5485C318.193 25.6687 318.288 25.7923 318.357 25.9194C318.426 26.0464 318.464 26.1728 318.471 26.2985C318.479 26.4228 318.454 26.545 318.394 26.6651C318.335 26.7853 318.239 26.8992 318.106 27.007C318.014 27.0774 317.921 27.1319 317.827 27.1706C317.736 27.2093 317.639 27.2397 317.537 27.2618C317.436 27.2852 317.327 27.3053 317.211 27.3218C317.098 27.3384 316.975 27.3605 316.843 27.3881C316.745 27.4088 316.661 27.433 316.592 27.4606C316.526 27.4883 316.464 27.5207 316.408 27.558C316.354 27.5953 316.299 27.6388 316.244 27.6885C316.19 27.7396 316.129 27.7983 316.06 27.8646L315.881 28.0428C315.759 28.1657 315.667 28.2927 315.608 28.4239C315.551 28.5551 315.522 28.685 315.521 28.8134C315.52 28.9418 315.544 29.0647 315.596 29.1821C315.647 29.2995 315.72 29.4059 315.815 29.5012C315.906 29.5923 316.004 29.6655 316.109 29.7208C316.214 29.776 316.324 29.8057 316.439 29.8098C316.556 29.814 316.678 29.7877 316.803 29.7311C316.93 29.6759 317.059 29.5826 317.191 29.4514L317.419 29.2236ZM319.123 25.5133L319.641 24.9954L319.345 24.6992L319.762 24.2828L320.534 25.0555L320.016 25.5734C320.141 25.6977 320.266 25.7964 320.391 25.8696C320.517 25.9401 320.637 25.987 320.752 26.0105C320.866 26.0312 320.973 26.0292 321.073 26.0043C321.172 25.9767 321.259 25.9263 321.332 25.8531L321.85 26.371C321.728 26.4925 321.584 26.583 321.417 26.6424C321.25 26.699 321.067 26.7155 320.87 26.6921C320.674 26.6672 320.467 26.5982 320.248 26.4849C320.03 26.3689 319.808 26.1983 319.583 25.9732L319.123 25.5133ZM318.479 33.0146L321.957 29.5364L322.519 30.0978L319.041 33.576L318.479 33.0146ZM317.3 31.8359L320.779 28.3576L321.338 28.917L317.86 32.3952L317.3 31.8359ZM323.758 34.6967C323.661 34.6802 323.561 34.6436 323.457 34.5869C323.355 34.5289 323.249 34.4606 323.14 34.3819C323.034 34.3031 322.925 34.2189 322.813 34.1291C322.701 34.0394 322.588 33.9551 322.473 33.8764C322.361 33.7977 322.247 33.7293 322.131 33.6713C322.018 33.6133 321.904 33.5753 321.79 33.5574C321.678 33.5394 321.566 33.5477 321.454 33.5822C321.344 33.6181 321.235 33.6893 321.129 33.7956C321.025 33.8992 320.959 34.0069 320.93 34.1188C320.902 34.2292 320.9 34.339 320.924 34.4481C320.95 34.5573 320.996 34.6622 321.06 34.763C321.127 34.8652 321.203 34.9591 321.288 35.0448C321.353 35.1097 321.417 35.1656 321.481 35.2126C321.544 35.2595 321.608 35.3023 321.672 35.341L321.23 35.7823C321.131 35.727 321.038 35.6676 320.953 35.6041C320.866 35.542 320.777 35.466 320.688 35.3762C320.533 35.2215 320.403 35.0572 320.298 34.8832C320.194 34.7106 320.129 34.5331 320.101 34.3508C320.075 34.1699 320.092 33.9876 320.151 33.8039C320.213 33.6202 320.333 33.44 320.509 33.2632C320.642 33.1306 320.773 33.0298 320.903 32.9607C321.033 32.8917 321.161 32.8475 321.288 32.8282C321.417 32.8102 321.543 32.8123 321.667 32.8344C321.793 32.8578 321.917 32.8958 322.038 32.9483C322.161 32.9994 322.282 33.0609 322.401 33.1327C322.521 33.2031 322.64 33.2777 322.757 33.3564C322.858 33.4268 322.959 33.5028 323.06 33.5843C323.163 33.6658 323.264 33.7431 323.362 33.8163C323.463 33.8895 323.561 33.9558 323.656 34.0152C323.753 34.0732 323.846 34.1153 323.936 34.1416C324.027 34.1664 324.114 34.1706 324.197 34.154C324.282 34.1374 324.363 34.0918 324.437 34.0173C324.524 33.9302 324.588 33.8439 324.63 33.7583C324.673 33.6741 324.697 33.5912 324.704 33.5097C324.713 33.4296 324.705 33.3516 324.682 33.2756C324.659 33.1983 324.627 33.123 324.584 33.0498C324.543 32.978 324.493 32.9089 324.435 32.8427C324.378 32.775 324.32 32.7108 324.259 32.65C324.139 32.5298 324.017 32.4297 323.892 32.3496C323.768 32.2695 323.642 32.2177 323.513 32.1942C323.386 32.1721 323.256 32.1818 323.124 32.2232C322.993 32.2661 322.859 32.3496 322.724 32.4739L322.146 31.8959C322.294 31.7564 322.444 31.6494 322.595 31.5748C322.747 31.5003 322.899 31.4533 323.051 31.434C323.203 31.4146 323.354 31.4202 323.503 31.4505C323.652 31.4809 323.799 31.5313 323.944 31.6018C324.092 31.6722 324.235 31.7599 324.373 31.8649C324.512 31.9712 324.647 32.0893 324.777 32.2191C324.879 32.3213 324.975 32.4297 325.065 32.5443C325.156 32.6604 325.234 32.7812 325.299 32.9069C325.365 33.0339 325.415 33.1638 325.448 33.2963C325.481 33.4289 325.492 33.5636 325.479 33.7003C325.467 33.837 325.427 33.9738 325.359 34.1105C325.293 34.2486 325.193 34.3846 325.059 34.5186L322.521 37.0563L321.96 36.4949L323.758 34.6967ZM325.023 31.4133L325.541 30.8954L325.245 30.5991L325.661 30.1827L326.434 30.9554L325.916 31.4733C326.041 31.5976 326.166 31.6964 326.291 31.7696C326.417 31.84 326.537 31.887 326.652 31.9104C326.766 31.9312 326.873 31.9291 326.973 31.9042C327.072 31.8766 327.159 31.8262 327.232 31.753L327.75 32.2709C327.628 32.3924 327.484 32.4829 327.317 32.5423C327.15 32.5989 326.967 32.6155 326.77 32.592C326.574 32.5671 326.366 32.4981 326.148 32.3848C325.93 32.2688 325.708 32.0983 325.483 31.8731L325.023 31.4133ZM326.933 37.9885C327.164 37.7579 327.345 37.5397 327.476 37.3339C327.609 37.1267 327.696 36.9334 327.737 36.7538C327.78 36.5729 327.779 36.4058 327.733 36.2525C327.687 36.0992 327.602 35.9597 327.476 35.8341C327.378 35.736 327.27 35.6614 327.153 35.6103C327.037 35.5606 326.914 35.5371 326.784 35.5399C326.656 35.5413 326.522 35.5716 326.382 35.631C326.244 35.689 326.105 35.7795 325.966 35.9024L325.39 35.3265C325.579 35.1484 325.784 35.0144 326.003 34.9246C326.223 34.8348 326.445 34.79 326.668 34.79C326.893 34.7913 327.115 34.839 327.333 34.9329C327.554 35.0268 327.76 35.1691 327.951 35.3597C328.191 35.6 328.355 35.852 328.442 36.1158C328.53 36.3782 328.551 36.6468 328.506 36.9216C328.463 37.1965 328.357 37.4734 328.189 37.7524C328.022 38.0327 327.801 38.3096 327.528 38.5831C327.255 38.8565 326.978 39.0768 326.697 39.2439C326.418 39.4124 326.141 39.518 325.867 39.5609C325.593 39.6051 325.325 39.583 325.063 39.4946C324.802 39.4048 324.551 39.2398 324.311 38.9995C324.12 38.8089 323.977 38.6038 323.882 38.3842C323.788 38.166 323.74 37.9443 323.739 37.7192C323.739 37.4955 323.784 37.2738 323.874 37.0542C323.963 36.8346 324.098 36.6295 324.278 36.439L324.854 37.0149C324.731 37.1544 324.639 37.2938 324.58 37.4333C324.522 37.5714 324.492 37.7054 324.489 37.8352C324.488 37.9637 324.512 38.0859 324.561 38.2019C324.614 38.3179 324.689 38.4249 324.787 38.523C324.913 38.6487 325.052 38.735 325.204 38.7819C325.356 38.8289 325.521 38.8323 325.699 38.7923C325.878 38.7509 326.071 38.6645 326.277 38.5333C326.483 38.4021 326.701 38.2205 326.933 37.9885Z" fill="white"/>
</g>
</g>
<defs>
<filter id="filter0_d_268_7975" x="-7" y="0" width="363" height="144" filterUnits="userSpaceOnUse" color-interpolation-filters="sRGB">
<feFlood flood-opacity="0" result="BackgroundImageFix"/>
<feColorMatrix in="SourceAlpha" type="matrix" values="0 0 0 0 0 0 0 0 0 0 0 0 0 0 0 0 0 0 127 0" result="hardAlpha"/>
<feOffset dy="4"/>
<feGaussianBlur stdDeviation="12"/>
<feComposite in2="hardAlpha" operator="out"/>
<feColorMatrix type="matrix" values="0 0 0 0 0 0 0 0 0 0 0 0 0 0 0 0 0 0 0.12 0"/>
<feBlend mode="normal" in2="BackgroundImageFix" result="effect1_dropShadow_268_7975"/>
<feBlend mode="normal" in="SourceGraphic" in2="effect1_dropShadow_268_7975" result="shape"/>
</filter>
<clipPath id="clip0_268_7975">
<rect width="315" height="96" fill="white" transform="translate(17 20)"/>
</clipPath>
<clipPath id="clip1_268_7975">
<path d="M301 20H324C328.418 20 332 23.5817 332 28V51H301V20Z" fill="white"/>
</clipPath>
</defs>
</svg>
